<svg version="1.1" id="Layer_1" xmlns="http://www.w3.org/2000/svg" xmlns:xlink="http://www.w3.org/1999/xlink" x="0px" y="0px"
	 width="100%" viewBox="0 0 1088 960" enable-background="new 0 0 1088 960" xml:space="preserve">
<path fill="#000000" opacity="1.000000" stroke="none" 
	d="
M513.000000,961.000000 
	C342.020782,961.000000 171.541580,961.000000 1.031189,961.000000 
	C1.031189,641.059814 1.031189,321.119629 1.031189,1.089726 
	C363.562592,1.089726 726.125244,1.089726 1088.843994,1.089726 
	C1088.843994,320.999939 1088.843994,640.999939 1088.843994,961.000000 
	C897.119568,961.000000 705.309753,961.000000 513.000000,961.000000 
M733.001648,533.994995 
	C733.001648,533.994995 732.929504,533.995117 733.125793,534.495117 
	C733.419128,534.687073 733.712463,534.879089 734.005554,534.998474 
	C734.005554,534.998474 733.932922,534.997620 734.051086,535.545471 
	C734.363525,535.723083 734.675903,535.900696 734.990723,536.008728 
	C734.990723,536.008728 734.921631,536.017212 734.971008,536.764465 
	C735.645691,537.200256 736.320312,537.636108 736.998047,538.000061 
	C736.998047,538.000061 736.926208,537.998047 737.023132,538.678833 
	C738.009644,539.810120 738.996155,540.941406 739.992188,542.003601 
	C739.992188,542.003601 739.922424,542.000732 740.030090,542.657898 
	C740.684814,543.468811 741.339539,544.279663 742.011047,544.996582 
	C742.011047,544.996582 741.917480,544.977417 742.122681,545.716248 
	C743.754944,549.329834 746.243286,552.810730 746.828430,556.586609 
	C747.827148,563.031128 748.296753,569.712830 747.787903,576.200745 
	C746.948730,586.900940 745.176880,597.566467 750.038635,607.757202 
	C753.129150,614.235229 756.576965,620.542908 759.881592,627.207336 
	C759.881592,627.207336 760.160095,627.244080 760.209229,627.827942 
	C760.804016,628.581238 761.398804,629.334473 762.000854,629.996216 
	C762.000854,629.996216 761.909363,629.988159 762.116211,630.728210 
	C763.635620,634.362305 765.926086,637.170105 769.993958,638.007080 
	C769.993958,638.007080 769.924805,638.012756 769.965088,638.764465 
	C775.390686,642.189209 780.601074,646.033325 786.286987,648.950806 
	C797.892029,654.905212 810.462646,655.166626 822.882324,652.819153 
	C828.867188,651.687988 834.431458,648.331421 840.647339,645.895325 
	C840.941589,645.703918 841.069763,645.433655 841.811951,644.957581 
	C847.530090,643.904907 851.642517,640.467957 855.010193,636.010620 
	C855.010193,636.010620 855.021484,636.078003 855.778503,636.034485 
	C867.121460,626.830688 872.732666,614.025574 874.637878,600.376404 
	C875.954041,590.947021 877.337463,580.505676 871.937622,570.505249 
	C871.883484,570.247437 871.829407,569.989624 871.420532,569.161926 
	C870.643127,567.456787 869.865723,565.751587 869.016174,563.390015 
	C868.935242,563.185242 868.854309,562.980530 868.442444,562.204407 
	C866.976257,559.792969 865.510071,557.381531 864.054382,554.378113 
	C863.772949,553.932434 863.491577,553.486816 862.997559,552.273438 
	C862.222900,547.549194 858.782043,545.099609 855.009277,542.990234 
	C855.009277,542.990234 855.075806,542.976562 855.016235,542.243835 
	C853.011719,540.472595 851.202026,538.390808 848.966125,536.988586 
	C842.372620,532.853760 835.589478,529.622131 827.779541,527.567627 
	C818.618042,525.157593 809.687744,526.050049 800.824707,526.393738 
	C792.635376,526.711182 784.638367,527.659851 776.731323,524.961731 
	C774.349609,524.149048 772.058960,523.069885 769.542480,521.957458 
	C769.542480,521.957458 769.324463,522.059814 768.920898,521.479187 
	C767.943420,520.963013 766.965881,520.446777 765.996277,520.005005 
	C765.996277,520.005005 766.070801,519.998352 765.863464,519.416199 
	C765.480530,519.313965 765.097656,519.211670 764.523865,518.954468 
	C764.523865,518.954468 764.298523,519.052551 763.893250,518.473389 
	C762.260315,517.291016 760.627319,516.108704 758.996399,515.003967 
	C758.996399,515.003967 759.074097,515.003235 759.008118,514.264771 
	C758.004883,513.484924 757.001648,512.705139 755.996582,512.002808 
	C755.996582,512.002808 756.074036,512.005615 755.977905,511.255707 
	C754.989075,510.146698 754.000305,509.037689 753.003967,507.997284 
	C753.003967,507.997284 753.072937,507.998657 752.998901,507.190094 
	C751.313477,504.662048 749.627991,502.133972 748.063660,499.421143 
	C748.063660,499.421143 747.913025,499.259521 747.979675,498.425751 
	C747.332886,497.597107 746.686157,496.768433 745.971130,495.125336 
	C745.875977,494.870087 745.780762,494.614838 745.674744,493.673065 
	C745.406799,491.441742 745.138794,489.210388 745.012329,486.155548 
	C744.354004,483.732971 743.695618,481.310364 742.972351,478.401337 
	C742.972351,478.401337 742.785339,477.947540 743.185242,477.251587 
	C743.806396,475.472595 744.888367,473.712433 744.962036,471.911041 
	C745.179688,466.589355 744.546204,461.206146 745.074158,455.929871 
	C745.981750,446.858276 742.621277,439.272827 737.998169,431.407349 
	C737.925415,431.241638 737.852661,431.075958 737.780029,430.439819 
	C737.576843,430.184387 737.316956,430.016632 736.896423,429.362946 
	C736.541687,428.907532 736.186890,428.452148 735.945679,427.181732 
	C735.096130,422.163208 733.054321,417.974976 728.043030,415.956360 
	C728.043030,415.956360 728.151611,415.953186 728.008728,415.249847 
	C725.623657,412.928528 723.517395,410.189484 720.795593,408.372620 
	C715.069702,404.550507 709.769226,399.502350 701.773682,399.331390 
	C697.866394,398.504669 693.959167,397.677979 689.611938,396.148529 
	C681.770081,394.910461 673.962585,395.325043 666.258545,397.028595 
	C664.402832,397.438934 662.780273,398.903198 660.288574,399.978180 
	C659.133057,400.401550 657.977600,400.824921 656.061401,401.097443 
	C653.809509,401.806793 651.372375,402.175201 649.336060,403.281372 
	C637.121826,409.916321 628.854675,420.256958 623.026917,432.585083 
	C619.723145,439.573883 617.761047,446.967896 617.937134,454.898621 
	C618.177185,465.712250 617.990112,476.535461 617.975891,487.354553 
	C617.974548,488.348145 618.237061,489.531494 617.803223,490.304932 
	C614.508606,496.179016 611.817139,502.611053 607.509399,507.647614 
	C600.403076,515.956421 591.943665,523.090820 580.607727,524.956726 
	C574.837646,525.906494 568.891968,525.789917 562.102356,525.970886 
	C557.679565,525.982788 553.250244,525.848755 548.835815,526.046814 
	C544.198792,526.254761 539.576111,526.780762 534.032593,527.055847 
	C526.211121,527.559570 518.712708,526.593323 511.858612,522.401978 
	C511.100220,521.938232 509.997742,522.037109 509.034119,521.967407 
	C509.034119,521.967407 509.128082,521.978394 508.942719,521.494690 
	C508.649750,521.377441 508.356812,521.260193 507.624237,520.959412 
	C507.624237,520.959412 507.147797,520.956604 506.837646,520.325195 
	C505.242371,519.512146 503.647095,518.699097 502.035675,517.962524 
	C502.035675,517.962524 502.112000,517.945557 501.998688,517.216980 
	C500.024231,515.429016 498.049774,513.641052 496.069489,511.940277 
	C496.069489,511.940277 496.155823,511.927094 496.022064,511.222321 
	C495.370544,510.762939 494.719025,510.303528 494.059387,509.939026 
	C494.059387,509.939026 494.154114,509.929260 494.018951,509.216370 
	C492.363953,507.448608 490.708954,505.680817 489.028473,503.989929 
	C489.028473,503.989929 489.099457,503.950958 488.929382,503.324738 
	C488.301239,502.536285 487.673096,501.747864 487.015320,500.216980 
	C485.952362,498.116150 484.889404,496.015350 483.948486,493.055420 
	C483.342957,486.720123 482.737427,480.384827 482.056335,474.025940 
	C482.056335,474.025940 482.066986,474.104401 482.818726,473.742645 
	C482.819458,471.526550 482.820221,469.310455 482.961517,466.154541 
	C483.356415,451.765198 482.485718,438.074432 474.341797,425.000610 
	C466.142120,411.837433 455.090668,403.267426 441.156982,398.108643 
	C429.450378,393.774384 417.015747,394.041382 404.929474,396.230469 
	C395.829346,397.878693 387.367523,401.664886 380.115479,407.926361 
	C372.987732,414.080414 366.881012,420.521790 362.426208,429.243378 
	C358.808502,436.326111 357.381256,443.444916 355.188843,451.203339 
	C353.412323,457.269714 352.472260,463.301056 356.004120,470.016205 
	C355.281311,475.285919 359.557861,479.807007 356.379944,486.030701 
	C352.857758,492.928680 350.374390,500.392395 345.663757,506.732239 
	C333.567139,523.012634 316.675873,527.882568 297.554596,525.798950 
	C288.608551,524.824036 280.022919,524.996826 271.331055,526.928589 
	C258.111664,529.866699 247.963272,537.523804 238.907181,547.195557 
	C229.924942,556.788452 225.522797,568.562500 224.232224,581.047180 
	C222.831116,594.601196 224.080780,608.122498 230.847076,620.741760 
	C235.153564,628.773499 240.758484,635.708191 247.843079,640.813538 
	C260.533325,649.958374 274.692993,655.155273 290.974976,654.177368 
	C304.478668,653.366272 316.612488,649.744080 327.560181,641.866028 
	C340.612854,632.473267 349.036377,620.241577 352.016876,604.021667 
	C352.360840,602.566772 352.990814,601.114502 353.004120,599.656555 
	C353.124634,586.460266 353.137299,573.262878 353.856415,559.694336 
	C355.582977,555.114502 356.925659,550.340820 359.119904,545.997253 
	C363.087463,538.143372 369.634949,532.523987 376.810364,527.688354 
	C385.167480,522.056274 394.145111,519.925049 404.489807,520.728027 
	C414.925537,521.538086 425.529633,520.179688 436.941162,519.942932 
	C442.404633,520.896790 448.015015,521.362427 453.287903,522.949463 
	C458.029236,524.376465 462.400177,527.034302 466.946228,529.062988 
	C466.946228,529.062988 466.859344,529.068481 467.180939,529.705688 
	C469.766632,531.851318 472.352356,533.997009 474.946228,536.054321 
	C474.946228,536.054321 474.857849,536.062134 475.005432,536.769836 
	C480.220032,544.986328 486.809021,552.630615 485.991760,563.354553 
	C485.947357,563.937256 486.527710,564.547119 486.566711,565.160217 
	C486.750397,568.048950 486.971527,570.945312 486.920166,573.834412 
	C486.895355,575.230530 485.924164,576.643860 486.022949,578.002747 
	C486.733337,587.775208 484.034668,597.803162 488.039124,607.321838 
	C490.812958,613.915405 492.544678,621.388794 496.834869,626.814026 
	C506.809479,639.427734 519.137817,649.125061 535.697510,652.441956 
	C553.604004,656.028625 570.284912,653.911011 585.665222,643.786133 
	C587.640686,642.485718 589.248047,640.626221 591.776978,638.977661 
	C593.211548,637.857727 594.756714,636.853088 596.062805,635.599365 
	C604.944214,627.074768 610.798584,617.107483 613.294617,604.735474 
	C615.308228,594.754456 615.534790,585.224304 613.302795,575.352234 
	C612.546814,572.008972 613.141846,568.169556 613.881531,564.720276 
	C615.237732,558.396545 617.160217,552.194275 619.012207,545.564026 
	C619.012207,545.564026 619.006775,545.151855 619.747559,545.008911 
	C621.204712,542.684814 622.661804,540.360657 624.036072,538.030396 
	C624.036072,538.030396 624.039795,538.113342 624.738281,537.991455 
	C625.205383,537.340149 625.672485,536.688843 626.035461,536.032898 
	C626.035461,536.032898 626.040955,536.137085 626.752747,536.015930 
	C627.545837,535.024170 628.338928,534.032410 629.035522,533.036682 
	C629.035522,533.036682 629.042358,533.132996 629.749756,532.996948 
	C633.886963,530.003784 638.024231,527.010620 642.582214,524.023010 
	C642.582214,524.023010 642.969299,523.857849 643.526672,523.921387 
	C643.732727,523.621216 643.938843,523.320984 644.558228,523.019775 
	C644.558228,523.019775 644.949402,522.886047 645.756165,523.023865 
	C654.556030,519.345459 663.809814,519.879944 672.928894,520.137207 
	C672.928894,520.137207 672.976562,520.238586 673.469299,520.919983 
	C683.978699,520.898560 694.488037,520.877136 705.812500,521.002686 
	C711.840393,523.007996 717.868286,525.013306 724.152344,527.634827 
	C725.105530,528.112732 726.058777,528.590576 727.001465,528.995850 
	C727.001465,528.995850 726.928772,529.005432 727.179443,529.645935 
	C728.784729,530.788696 730.390015,531.931519 731.997498,533.003479 
	C731.997498,533.003479 731.926697,533.002869 732.063171,533.544800 
	C732.376343,533.718933 732.689575,533.893066 733.001648,533.994995 
M581.023193,383.034210 
	C581.023193,383.034210 581.048157,383.143707 581.777283,383.016357 
	C591.128723,378.140442 599.023804,371.344208 604.605835,362.565216 
	C608.931396,355.762268 611.893188,348.286499 613.494324,339.920959 
	C615.081665,331.627899 615.523193,323.703217 613.875122,315.729034 
	C612.434265,308.757874 610.987854,301.316162 607.418518,295.354980 
	C600.030701,283.016663 589.177307,274.057556 575.783936,268.219208 
	C564.236511,263.185486 551.980408,262.645844 540.150757,264.335846 
	C525.498291,266.429138 512.971558,273.273926 502.197449,284.542023 
	C493.682526,293.447357 488.401672,303.795227 486.567993,314.700134 
	C484.699615,325.811310 484.146637,337.886322 488.559174,349.309296 
	C493.442474,361.950989 501.035217,372.325867 512.140381,379.969391 
	C516.157166,382.734039 520.781860,384.615601 525.392456,387.047455 
	C525.392456,387.047455 525.688782,386.990479 526.101440,387.678925 
	C527.133301,388.126495 528.134888,388.669617 529.201599,389.006866 
	C539.967468,392.410400 551.152039,391.507446 561.980042,390.623230 
	C568.526917,390.088562 574.759766,385.707245 581.023193,383.034210 
z"/>
<path fill="#5B2AB9" opacity="1.000000" stroke="none" 
	d="
M863.210205,553.041138 
	C863.491577,553.486816 863.772949,553.932434 864.107178,555.024658 
	C865.697815,558.039429 867.235596,560.407593 868.773376,562.775757 
	C868.854309,562.980530 868.935242,563.185242 869.121338,564.067383 
	C870.076050,566.407104 870.925659,568.069458 871.775269,569.731812 
	C871.829407,569.989624 871.883484,570.247437 871.705811,571.167969 
	C876.391357,594.490295 872.476501,615.004883 856.777405,632.701294 
	C855.960876,633.621704 855.596436,634.943237 855.021484,636.078003 
	C855.021484,636.078003 855.010193,636.010620 854.683594,635.950073 
	C849.915283,638.954590 845.473572,642.019592 841.031860,645.084595 
	C841.069763,645.433655 840.941589,645.703918 840.012085,645.917358 
	C838.126343,646.369507 836.850342,646.737610 835.629150,647.239258 
	C818.257507,654.376038 801.018494,654.054688 784.058777,646.020996 
	C779.178101,643.709167 774.627014,640.701416 769.924805,638.012695 
	C769.924805,638.012756 769.993958,638.007080 769.999634,637.695129 
	C767.306641,634.918152 764.608032,632.453186 761.909363,629.988159 
	C761.909363,629.988159 762.000854,629.996216 761.950317,629.733521 
	C761.319885,628.728577 760.739990,627.986328 760.160095,627.244080 
	C760.160095,627.244080 759.881592,627.207336 759.778687,626.736877 
	C750.174744,610.220520 747.367981,593.072144 750.025696,574.610901 
	C751.570740,563.878479 749.287170,553.576721 741.917480,544.977417 
	C741.917480,544.977417 742.011047,544.996582 742.005371,544.692627 
	C741.307312,543.592651 740.614868,542.796692 739.922424,542.000732 
	C739.922424,542.000732 739.992188,542.003601 740.043518,541.686279 
	C739.038635,540.245361 737.982422,539.121704 736.926208,537.998047 
	C736.926208,537.998047 736.998047,538.000061 736.994385,537.694946 
	C736.300964,536.932312 735.611328,536.474731 734.921631,536.017212 
	C734.921631,536.017212 734.990723,536.008728 735.002319,535.728027 
	C734.653503,535.297485 734.293213,535.147583 733.932922,534.997620 
	C733.932922,534.997620 734.005554,534.998474 733.970825,534.739258 
	C733.600586,534.318420 733.265015,534.156799 732.929504,533.995117 
	C732.929504,533.995117 733.001648,533.994995 732.996094,533.721191 
	C732.635864,533.299194 732.281311,533.151062 731.926697,533.002869 
	C731.926697,533.002869 731.997498,533.003479 731.994019,532.687195 
	C730.303284,531.249084 728.616028,530.127258 726.928772,529.005432 
	C726.928772,529.005432 727.001465,528.995850 726.931519,528.696899 
	C725.873108,527.938171 724.884644,527.478394 723.896179,527.018555 
	C717.868286,525.013306 711.840393,523.007996 705.190674,520.611572 
	C700.989563,519.848633 697.410339,519.476868 694.112488,518.848267 
	C696.624268,517.994995 698.869385,517.448486 701.082703,516.794250 
	C718.530640,511.636658 731.421265,501.277588 738.563965,484.132629 
	C739.487671,483.424988 740.163147,482.681580 740.902161,481.868256 
	C742.601929,486.307068 744.143738,490.333313 745.685547,494.359558 
	C745.780762,494.614838 745.875977,494.870087 746.009521,495.874878 
	C746.669617,497.502777 747.291321,498.381165 747.913025,499.259521 
	C747.913025,499.259521 748.063660,499.421143 747.982910,499.915497 
	C749.625732,502.939453 751.349365,505.469055 753.072937,507.998657 
	C753.072937,507.998657 753.003967,507.997284 752.973328,508.315857 
	C753.986511,509.758148 755.030273,510.881866 756.074036,512.005615 
	C756.074036,512.005615 755.996582,512.002808 756.024536,512.302734 
	C757.059753,513.402832 758.066895,514.203064 759.074097,515.003235 
	C759.074097,515.003235 758.996399,515.003967 759.039185,515.312073 
	C760.820801,516.764282 762.559631,517.908447 764.298523,519.052551 
	C764.298523,519.052551 764.523865,518.954468 764.752014,519.302734 
	C765.343689,519.766785 765.707275,519.882568 766.070801,519.998352 
	C766.070801,519.998352 765.996277,520.005005 766.072998,520.315308 
	C767.207947,521.103638 768.266174,521.581726 769.324463,522.059814 
	C769.324463,522.059814 769.542480,521.957458 769.765015,522.359375 
	C778.498291,528.367615 787.904419,529.842041 797.721252,528.054688 
	C816.202332,524.689758 833.119385,527.991821 848.490662,538.921326 
	C850.586975,540.411865 852.875977,541.631531 855.075806,542.976562 
	C855.075806,542.976562 855.009277,542.990234 854.957275,543.311523 
	C857.673523,546.768860 860.441895,549.905029 863.210205,553.041138 
z"/>
<path fill="#8CDBE9" opacity="1.000000" stroke="none" 
	d="
M525.688782,386.990479 
	C525.688782,386.990479 525.392456,387.047455 525.236389,386.613770 
	C523.799316,385.017303 522.692749,383.524231 521.211060,382.741272 
	C499.383453,371.207458 488.923615,352.290375 488.240540,328.462860 
	C487.720245,310.313782 494.753448,294.392334 508.504883,281.887115 
	C524.015869,267.781799 542.404480,262.956573 562.566162,266.842102 
	C582.544556,270.692291 597.596924,281.718689 606.208618,300.901703 
	C610.781494,311.088104 613.628967,321.127167 612.283203,332.561768 
	C609.961731,352.286102 601.467773,367.887146 584.802612,378.928558 
	C583.286011,379.933411 582.287354,381.720093 581.048157,383.143707 
	C581.048157,383.143707 581.023193,383.034210 580.686218,383.024048 
	C579.397827,383.283508 578.414795,383.473206 577.499695,383.834808 
	C565.944946,388.400940 554.207886,391.499420 541.595032,389.179749 
	C536.336609,388.212677 530.993408,387.706329 525.688782,386.990479 
z"/>
<path fill="#6FA5D4" opacity="1.000000" stroke="none" 
	d="
M738.315796,484.096893 
	C731.421265,501.277588 718.530640,511.636658 701.082703,516.794250 
	C698.869385,517.448486 696.624268,517.994995 693.741455,518.881226 
	C686.384949,519.526917 679.680725,519.882751 672.976562,520.238586 
	C672.976562,520.238586 672.928894,520.137207 672.683289,519.831177 
	C667.958435,519.011597 663.479248,518.498047 658.788269,517.718018 
	C657.470642,516.714478 656.428406,515.849854 655.248840,515.260132 
	C643.892273,509.582489 634.362183,501.907654 627.825745,490.799316 
	C625.816650,487.385010 623.426941,484.194672 621.161865,480.452942 
	C620.667603,471.894318 619.343018,463.718567 619.944885,455.687225 
	C621.680237,432.532806 632.715149,414.972046 653.393311,403.813202 
	C654.635803,403.142700 655.683716,402.111633 656.822083,401.248291 
	C657.977600,400.824921 659.133057,400.401550 660.980591,400.052490 
	C665.299072,399.379272 668.894531,398.332611 672.559082,397.952881 
	C678.365723,397.351166 684.218567,397.195587 690.051880,396.851257 
	C693.959167,397.677979 697.866394,398.504669 702.189331,399.888000 
	C707.085999,402.872314 711.665894,405.136780 716.019592,407.774658 
	C720.185913,410.298981 724.117065,413.211365 728.151611,415.953186 
	C728.151611,415.953186 728.043030,415.956360 728.014771,416.272247 
	C730.601746,420.391022 733.216919,424.193878 735.832153,427.996765 
	C736.186890,428.452148 736.541687,428.907532 737.132385,429.765503 
	C737.440857,430.451416 737.578064,430.698822 737.779907,430.910309 
	C737.852661,431.075958 737.925415,431.241638 738.066528,432.070496 
	C738.445679,434.016235 738.591858,435.367523 739.093384,436.570679 
	C743.100647,446.183533 744.191284,456.075653 742.519653,466.370392 
	C741.944275,469.913513 742.110229,473.577057 741.568359,477.287109 
	C740.237976,479.624756 739.276917,481.860840 738.315796,484.096893 
z"/>
<path fill="#A5D3B0" opacity="1.000000" stroke="none" 
	d="
M507.147797,520.956604 
	C507.147797,520.956604 507.624237,520.959412 507.968018,521.246338 
	C508.584534,521.680481 508.856659,521.828796 509.128082,521.978394 
	C509.128082,521.978394 509.034119,521.967407 509.105469,522.267944 
	C516.236572,528.304932 524.701965,528.018555 532.958862,528.480103 
	C532.635437,529.062378 532.464355,529.470215 532.207092,529.534729 
	C514.445984,533.992432 502.612701,545.531006 494.198303,561.211914 
	C492.938843,563.558960 491.408020,565.760437 489.958069,567.606934 
	C489.343628,556.644409 484.976105,547.526733 479.117859,539.042419 
	C478.194946,537.705750 476.302185,537.038757 474.857849,536.062134 
	C474.857849,536.062134 474.946228,536.054321 474.927429,535.744568 
	C472.225555,533.312683 469.542450,531.190613 466.859344,529.068481 
	C466.859344,529.068481 466.946228,529.062988 466.924072,528.749146 
	C464.091034,526.556091 461.513245,523.977722 458.419739,522.946472 
	C452.383423,520.934265 446.058624,519.787292 440.024109,517.919556 
	C442.006805,516.575989 443.818634,515.594971 445.784058,514.597778 
	C446.135864,514.275024 446.334045,513.968323 446.864075,513.440369 
	C460.393921,506.982208 470.140656,497.276917 476.630188,484.203033 
	C477.439270,482.573090 479.006927,481.319733 480.463928,480.209503 
	C481.745270,484.989594 482.785828,489.452057 483.826416,493.914551 
	C484.889404,496.015350 485.952362,498.116150 487.061096,500.932343 
	C487.771057,502.415436 488.435272,503.183197 489.099457,503.950958 
	C489.099457,503.950958 489.028473,503.989929 489.044922,504.317902 
	C490.758972,506.406982 492.456543,508.168121 494.154114,509.929260 
	C494.154114,509.929260 494.059387,509.939026 494.081390,510.234558 
	C494.787537,510.995758 495.471680,511.461426 496.155823,511.927094 
	C496.155823,511.927094 496.069489,511.940277 496.049683,512.267944 
	C498.057251,514.378967 500.084625,516.162292 502.112000,517.945557 
	C502.112000,517.945557 502.035675,517.962524 502.109039,518.273560 
	C503.837524,519.375244 505.492676,520.165894 507.147797,520.956604 
z"/>
<path fill="#7BCFEC" opacity="1.000000" stroke="none" 
	d="
M621.211548,480.901764 
	C623.426941,484.194672 625.816650,487.385010 627.825745,490.799316 
	C634.362183,501.907654 643.892273,509.582489 655.248840,515.260132 
	C656.428406,515.849854 657.470642,516.714478 658.502014,517.987427 
	C657.129578,518.682922 655.749573,518.614563 654.549561,519.046265 
	C651.308533,520.212402 648.144165,521.591431 644.949402,522.885986 
	C644.949402,522.886047 644.558228,523.019775 644.125916,523.121338 
	C643.355774,523.324463 643.114319,523.536133 642.969299,523.857849 
	C642.969299,523.857849 642.582214,524.023010 641.988159,524.026367 
	C636.353210,525.810913 631.289307,527.560913 629.042358,533.132996 
	C629.042358,533.132996 629.035522,533.036682 628.734131,533.072144 
	C627.635498,534.117432 626.838196,535.127258 626.040955,536.137085 
	C626.040955,536.137085 626.035461,536.032898 625.755493,536.075317 
	C624.997009,536.782898 624.518372,537.448120 624.039795,538.113342 
	C624.039795,538.113342 624.036072,538.030396 623.739502,538.104004 
	C621.964172,540.502380 620.485474,542.827087 619.006775,545.151855 
	C619.006775,545.151855 619.012207,545.564026 618.604370,545.855225 
	C616.171021,551.413940 614.145447,556.681396 612.119873,561.948853 
	C611.577942,563.358093 611.035828,564.767212 610.149170,565.996582 
	C604.371460,558.212280 599.599060,549.993896 593.290283,543.202820 
	C588.488464,538.033875 581.735535,534.677368 576.051697,530.243530 
	C578.273926,528.918701 580.183594,527.421692 582.333740,526.880310 
	C602.161438,521.888123 620.798096,501.839874 621.211548,480.901764 
z"/>
<path fill="#F9F6C9" opacity="1.000000" stroke="none" 
	d="
M436.059937,519.771362 
	C425.529633,520.179688 414.925537,521.538086 404.489807,520.728027 
	C394.145111,519.925049 385.167480,522.056274 376.810364,527.688354 
	C369.634949,532.523987 363.087463,538.143372 359.119904,545.997253 
	C356.925659,550.340820 355.582977,555.114502 353.203308,560.149902 
	C352.377106,561.897766 352.081573,563.186951 352.049713,564.482666 
	C351.725769,577.671021 351.444763,590.860535 351.151703,604.049683 
	C349.036377,620.241577 340.612854,632.473267 327.560181,641.866028 
	C316.612488,649.744080 304.478668,653.366272 290.974976,654.177368 
	C274.692993,655.155273 260.533325,649.958374 247.843079,640.813538 
	C240.758484,635.708191 235.153564,628.773499 230.847076,620.741760 
	C224.080780,608.122498 222.831116,594.601196 224.232224,581.047180 
	C225.522797,568.562500 229.924942,556.788452 238.907181,547.195557 
	C247.963272,537.523804 258.111664,529.866699 271.331055,526.928589 
	C280.022919,524.996826 288.608551,524.824036 297.554596,525.798950 
	C316.675873,527.882568 333.567139,523.012634 345.663757,506.732239 
	C350.374390,500.392395 352.857758,492.928680 356.379944,486.030701 
	C359.557861,479.807007 355.281311,475.285919 355.983093,469.147522 
	C355.956665,462.471619 355.951263,456.664398 355.945892,450.857208 
	C357.381256,443.444916 358.808502,436.326111 362.426208,429.243378 
	C366.881012,420.521790 372.987732,414.080414 380.115479,407.926361 
	C387.367523,401.664886 395.829346,397.878693 404.929474,396.230469 
	C417.015747,394.041382 429.450378,393.774384 441.156982,398.108643 
	C455.090668,403.267426 466.142120,411.837433 474.341797,425.000610 
	C482.485718,438.074432 483.356415,451.765198 482.660767,466.928406 
	C482.262329,469.836334 482.164673,471.970367 482.066986,474.104401 
	C482.066986,474.104401 482.056335,474.025940 481.857422,474.144226 
	C481.275238,474.835114 480.891937,475.407684 480.205963,475.751862 
	C479.840698,474.409576 479.701538,473.293915 479.727814,472.182098 
	C479.919006,464.097534 481.338531,455.832306 480.143829,447.962067 
	C475.736206,418.926086 453.582397,400.146332 426.250275,397.145294 
	C388.713776,393.023834 357.592896,422.505341 357.905487,460.338562 
	C357.967987,467.898682 359.791779,475.444244 360.544617,483.242310 
	C359.842041,484.725708 359.305176,485.938568 358.968781,487.204681 
	C355.187866,501.433350 347.243561,512.864563 334.985870,520.864807 
	C323.260132,528.517822 310.039215,529.171448 296.521820,527.335266 
	C287.487885,526.108032 278.518463,527.034546 270.002777,530.037720 
	C249.749603,537.180237 236.105194,550.906616 229.871399,571.719666 
	C222.913300,594.950989 227.859650,615.553162 244.492264,632.827332 
	C257.604462,646.445374 274.060699,652.108154 293.230377,651.235168 
	C311.768982,650.390930 326.166443,641.849854 337.490601,628.446228 
	C349.260040,614.515503 351.854126,597.256042 349.766785,579.549377 
	C348.785583,571.226013 349.391235,563.489136 351.961670,555.556091 
	C358.305664,535.976807 371.885040,524.513245 391.264008,519.119019 
	C392.596283,518.748169 393.770996,517.811279 395.440155,517.128052 
	C406.082367,518.543091 416.178619,521.457642 426.682190,519.301697 
	C429.986420,518.623474 433.402252,518.489014 436.751831,518.344299 
	C436.736603,518.582886 436.635834,519.050415 436.515076,519.150024 
	C436.237305,519.394409 436.125824,519.568298 436.059937,519.771362 
z"/>
<path fill="#D4EBF1" opacity="1.000000" stroke="none" 
	d="
M581.412720,383.080017 
	C582.287354,381.720093 583.286011,379.933411 584.802612,378.928558 
	C601.467773,367.887146 609.961731,352.286102 612.283203,332.561768 
	C613.628967,321.127167 610.781494,311.088104 606.208618,300.901703 
	C597.596924,281.718689 582.544556,270.692291 562.566162,266.842102 
	C542.404480,262.956573 524.015869,267.781799 508.504883,281.887115 
	C494.753448,294.392334 487.720245,310.313782 488.240540,328.462860 
	C488.923615,352.290375 499.383453,371.207458 521.211060,382.741272 
	C522.692749,383.524231 523.799316,385.017303 525.104736,386.540100 
	C520.781860,384.615601 516.157166,382.734039 512.140381,379.969391 
	C501.035217,372.325867 493.442474,361.950989 488.559174,349.309296 
	C484.146637,337.886322 484.699615,325.811310 486.567993,314.700134 
	C488.401672,303.795227 493.682526,293.447357 502.197449,284.542023 
	C512.971558,273.273926 525.498291,266.429138 540.150757,264.335846 
	C551.980408,262.645844 564.236511,263.185486 575.783936,268.219208 
	C589.177307,274.057556 600.030701,283.016663 607.418518,295.354980 
	C610.987854,301.316162 612.434265,308.757874 613.875122,315.729034 
	C615.523193,323.703217 615.081665,331.627899 613.494324,339.920959 
	C611.893188,348.286499 608.931396,355.762268 604.605835,362.565216 
	C599.023804,371.344208 591.128723,378.140442 581.412720,383.080017 
z"/>
<path fill="#D4EBF1" opacity="1.000000" stroke="none" 
	d="
M474.931641,536.416016 
	C476.302185,537.038757 478.194946,537.705750 479.117859,539.042419 
	C484.976105,547.526733 489.343628,556.644409 489.931091,568.027832 
	C489.536469,572.998352 489.154266,577.128967 488.706787,581.252441 
	C486.232239,604.054260 493.189667,623.266113 511.131958,637.809326 
	C530.160034,653.232605 551.474670,656.323853 574.286255,647.550171 
	C580.092102,645.317322 585.431885,641.872620 590.995667,638.995056 
	C591.005493,639.005432 591.025940,639.025635 591.025940,639.025635 
	C589.248047,640.626221 587.640686,642.485718 585.665222,643.786133 
	C570.284912,653.911011 553.604004,656.028625 535.697510,652.441956 
	C519.137817,649.125061 506.809479,639.427734 496.834869,626.814026 
	C492.544678,621.388794 490.812958,613.915405 488.039124,607.321838 
	C484.034668,597.803162 486.733337,587.775208 486.022949,578.002747 
	C485.924164,576.643860 486.895355,575.230530 486.920166,573.834412 
	C486.971527,570.945312 486.750397,568.048950 486.566711,565.160217 
	C486.527710,564.547119 485.947357,563.937256 485.991760,563.354553 
	C486.809021,552.630615 480.220032,544.986328 474.931641,536.416016 
z"/>
<path fill="#D4EBF1" opacity="1.000000" stroke="none" 
	d="
M621.161865,480.452942 
	C620.798096,501.839874 602.161438,521.888123 582.333740,526.880310 
	C580.183594,527.421692 578.273926,528.918701 575.701904,530.259888 
	C571.129333,529.668884 567.107483,528.790405 563.053467,527.620239 
	C563.022705,526.937500 563.024231,526.546387 563.025696,526.155334 
	C568.891968,525.789917 574.837646,525.906494 580.607727,524.956726 
	C591.943665,523.090820 600.403076,515.956421 607.509399,507.647614 
	C611.817139,502.611053 614.508606,496.179016 617.803223,490.304932 
	C618.237061,489.531494 617.974548,488.348145 617.975891,487.354553 
	C617.990112,476.535461 618.177185,465.712250 617.937134,454.898621 
	C617.761047,446.967896 619.723145,439.573883 623.026917,432.585083 
	C628.854675,420.256958 637.121826,409.916321 649.336060,403.281372 
	C651.372375,402.175201 653.809509,401.806793 656.441772,401.172882 
	C655.683716,402.111633 654.635803,403.142700 653.393311,403.813202 
	C632.715149,414.972046 621.680237,432.532806 619.944885,455.687225 
	C619.343018,463.718567 620.667603,471.894318 621.161865,480.452942 
z"/>
<path fill="#D4EBF1" opacity="1.000000" stroke="none" 
	d="
M610.493774,566.176392 
	C611.035828,564.767212 611.577942,563.358093 612.119873,561.948853 
	C614.145447,556.681396 616.171021,551.413940 618.521606,546.043945 
	C617.160217,552.194275 615.237732,558.396545 613.881531,564.720276 
	C613.141846,568.169556 612.546814,572.008972 613.302795,575.352234 
	C615.534790,585.224304 615.308228,594.754456 613.294617,604.735474 
	C610.798584,617.107483 604.944214,627.074768 596.062805,635.599365 
	C594.756714,636.853088 593.211548,637.857727 591.401489,639.001648 
	C591.025940,639.025635 591.005493,639.005432 591.044617,638.659546 
	C591.809265,637.414185 592.461609,636.442139 593.271179,635.626038 
	C609.218079,619.549805 616.055908,600.510315 612.172791,577.930847 
	C611.502319,574.031738 611.047974,570.095459 610.493774,566.176392 
z"/>
<path fill="#C7B4E1" opacity="1.000000" stroke="none" 
	d="
M742.020081,545.346802 
	C749.287170,553.576721 751.570740,563.878479 750.025696,574.610901 
	C747.367981,593.072144 750.174744,610.220520 759.770142,626.596680 
	C756.576965,620.542908 753.129150,614.235229 750.038635,607.757202 
	C745.176880,597.566467 746.948730,586.900940 747.787903,576.200745 
	C748.296753,569.712830 747.827148,563.031128 746.828430,556.586609 
	C746.243286,552.810730 743.754944,549.329834 742.020081,545.346802 
z"/>
<path fill="#C7B4E1" opacity="1.000000" stroke="none" 
	d="
M855.046021,542.610229 
	C852.875977,541.631531 850.586975,540.411865 848.490662,538.921326 
	C833.119385,527.991821 816.202332,524.689758 797.721252,528.054688 
	C787.904419,529.842041 778.498291,528.367615 769.857056,522.437012 
	C772.058960,523.069885 774.349609,524.149048 776.731323,524.961731 
	C784.638367,527.659851 792.635376,526.711182 800.824707,526.393738 
	C809.687744,526.050049 818.618042,525.157593 827.779541,527.567627 
	C835.589478,529.622131 842.372620,532.853760 848.966125,536.988586 
	C851.202026,538.390808 853.011719,540.472595 855.046021,542.610229 
z"/>
<path fill="#C7B4E1" opacity="1.000000" stroke="none" 
	d="
M855.400024,636.056274 
	C855.596436,634.943237 855.960876,633.621704 856.777405,632.701294 
	C872.476501,615.004883 876.391357,594.490295 871.641235,571.557739 
	C877.337463,580.505676 875.954041,590.947021 874.637878,600.376404 
	C872.732666,614.025574 867.121460,626.830688 855.400024,636.056274 
z"/>
<path fill="#C7B4E1" opacity="1.000000" stroke="none" 
	d="
M769.944946,638.388550 
	C774.627014,640.701416 779.178101,643.709167 784.058777,646.020996 
	C801.018494,654.054688 818.257507,654.376038 835.629150,647.239258 
	C836.850342,646.737610 838.126343,646.369507 839.781555,645.960938 
	C834.431458,648.331421 828.867188,651.687988 822.882324,652.819153 
	C810.462646,655.166626 797.892029,654.905212 786.286987,648.950806 
	C780.601074,646.033325 775.390686,642.189209 769.944946,638.388550 
z"/>
<path fill="#D4EBF1" opacity="1.000000" stroke="none" 
	d="
M741.937561,477.185577 
	C742.110229,473.577057 741.944275,469.913513 742.519653,466.370392 
	C744.191284,456.075653 743.100647,446.183533 739.093384,436.570679 
	C738.591858,435.367523 738.445679,434.016235 738.069092,432.341888 
	C742.621277,439.272827 745.981750,446.858276 745.074158,455.929871 
	C744.546204,461.206146 745.179688,466.589355 744.962036,471.911041 
	C744.888367,473.712433 743.806396,475.472595 742.863220,477.512817 
	C742.323853,477.594971 742.122681,477.398804 741.937561,477.185577 
z"/>
<path fill="#D4EBF1" opacity="1.000000" stroke="none" 
	d="
M525.895142,387.334717 
	C530.993408,387.706329 536.336609,388.212677 541.595032,389.179749 
	C554.207886,391.499420 565.944946,388.400940 577.499695,383.834808 
	C578.414795,383.473206 579.397827,383.283508 580.741455,383.034088 
	C574.759766,385.707245 568.526917,390.088562 561.980042,390.623230 
	C551.152039,391.507446 539.967468,392.410400 529.201599,389.006866 
	C528.134888,388.669617 527.133301,388.126495 525.895142,387.334717 
z"/>
<path fill="#D4EBF1" opacity="1.000000" stroke="none" 
	d="
M728.080200,415.601501 
	C724.117065,413.211365 720.185913,410.298981 716.019592,407.774658 
	C711.665894,405.136780 707.085999,402.872314 702.332764,400.252655 
	C709.769226,399.502350 715.069702,404.550507 720.795593,408.372620 
	C723.517395,410.189484 725.623657,412.928528 728.080200,415.601501 
z"/>
<path fill="#D4EBF1" opacity="1.000000" stroke="none" 
	d="
M436.500549,519.857178 
	C436.125824,519.568298 436.237305,519.394409 436.819702,519.096802 
	C437.570709,518.714722 437.896362,518.485535 438.495300,518.242310 
	C439.130157,518.246277 439.491699,518.264160 439.853271,518.282104 
	C446.058624,519.787292 452.383423,520.934265 458.419739,522.946472 
	C461.513245,523.977722 464.091034,526.556091 466.918213,528.792236 
	C462.400177,527.034302 458.029236,524.376465 453.287903,522.949463 
	C448.015015,521.362427 442.404633,520.896790 436.500549,519.857178 
z"/>
<path fill="#C7B4E1" opacity="1.000000" stroke="none" 
	d="
M689.831909,396.499878 
	C684.218567,397.195587 678.365723,397.351166 672.559082,397.952881 
	C668.894531,398.332611 665.299072,399.379272 661.361572,400.004791 
	C662.780273,398.903198 664.402832,397.438934 666.258545,397.028595 
	C673.962585,395.325043 681.770081,394.910461 689.831909,396.499878 
z"/>
<path fill="#D4EBF1" opacity="1.000000" stroke="none" 
	d="
M351.584290,604.035645 
	C351.444763,590.860535 351.725769,577.671021 352.049713,564.482666 
	C352.081573,563.186951 352.377106,561.897766 352.865906,560.335693 
	C353.137299,573.262878 353.124634,586.460266 353.004120,599.656555 
	C352.990814,601.114502 352.360840,602.566772 351.584290,604.035645 
z"/>
<path fill="#C7B4E1" opacity="1.000000" stroke="none" 
	d="
M673.222900,520.579285 
	C679.680725,519.882751 686.384949,519.526917 693.460083,519.138062 
	C697.410339,519.476868 700.989563,519.848633 704.783081,520.538086 
	C694.488037,520.877136 683.978699,520.898560 673.222900,520.579285 
z"/>
<path fill="#C7B4E1" opacity="1.000000" stroke="none" 
	d="
M741.568359,477.287109 
	C742.122681,477.398804 742.323853,477.594971 742.663269,477.860779 
	C742.785339,477.947540 742.972351,478.401337 742.984009,479.050720 
	C743.620728,482.126434 744.245789,484.552734 744.870850,486.979065 
	C745.138794,489.210388 745.406799,491.441742 745.680176,494.016296 
	C744.143738,490.333313 742.601929,486.307068 740.902161,481.868256 
	C740.163147,482.681580 739.487671,483.424988 738.564026,484.132629 
	C739.276917,481.860840 740.237976,479.624756 741.568359,477.287109 
z"/>
<path fill="#A5D3B0" opacity="1.000000" stroke="none" 
	d="
M562.564026,526.063110 
	C563.024231,526.546387 563.022705,526.937500 562.629700,527.596924 
	C556.158264,527.737854 550.078491,527.537109 543.998169,527.514526 
	C540.995361,527.503357 537.991394,527.820862 534.974731,527.784363 
	C534.961487,527.579041 534.947144,527.167786 534.947144,527.167786 
	C539.576111,526.780762 544.198792,526.254761 548.835815,526.046814 
	C553.250244,525.848755 557.679565,525.982788 562.564026,526.063110 
z"/>
<path fill="#8CDBE9" opacity="1.000000" stroke="none" 
	d="
M645.352783,522.954956 
	C648.144165,521.591431 651.308533,520.212402 654.549561,519.046265 
	C655.749573,518.614563 657.129578,518.682922 658.713745,518.253784 
	C663.479248,518.498047 667.958435,519.011597 672.732910,519.805176 
	C663.809814,519.879944 654.556030,519.345459 645.352783,522.954956 
z"/>
<path fill="#D4EBF1" opacity="1.000000" stroke="none" 
	d="
M534.489868,527.111816 
	C534.947144,527.167786 534.961487,527.579041 534.653687,527.790405 
	C533.920959,528.049622 533.495972,528.097534 533.070984,528.145386 
	C524.701965,528.018555 516.236572,528.304932 509.115845,522.221802 
	C509.997742,522.037109 511.100220,521.938232 511.858612,522.401978 
	C518.712708,526.593323 526.211121,527.559570 534.489868,527.111816 
z"/>
<path fill="#D4EBF1" opacity="1.000000" stroke="none" 
	d="
M480.508667,475.980225 
	C480.891937,475.407684 481.275238,474.835114 481.895233,474.156036 
	C482.737427,480.384827 483.342957,486.720123 483.887451,493.484985 
	C482.785828,489.452057 481.745270,484.989594 480.424561,479.818237 
	C480.265839,478.066345 480.387238,477.023285 480.508667,475.980225 
z"/>
<path fill="#D4EBF1" opacity="1.000000" stroke="none" 
	d="
M735.888916,427.589233 
	C733.216919,424.193878 730.601746,420.391022 728.019592,416.218140 
	C733.054321,417.974976 735.096130,422.163208 735.888916,427.589233 
z"/>
<path fill="#C7B4E1" opacity="1.000000" stroke="none" 
	d="
M841.421875,645.021118 
	C845.473572,642.019592 849.915283,638.954590 854.717041,635.957031 
	C851.642517,640.467957 847.530090,643.904907 841.421875,645.021118 
z"/>
<path fill="#D4EBF1" opacity="1.000000" stroke="none" 
	d="
M629.396057,533.064941 
	C631.289307,527.560913 636.353210,525.810913 641.777710,524.023560 
	C638.024231,527.010620 633.886963,530.003784 629.396057,533.064941 
z"/>
<path fill="#D4EBF1" opacity="1.000000" stroke="none" 
	d="
M355.567383,451.030273 
	C355.951263,456.664398 355.956665,462.471619 355.951172,468.713318 
	C352.472260,463.301056 353.412323,457.269714 355.567383,451.030273 
z"/>
<path fill="#C7B4E1" opacity="1.000000" stroke="none" 
	d="
M863.103882,552.657288 
	C860.441895,549.905029 857.673523,546.768860 854.963013,543.278015 
	C858.782043,545.099609 862.222900,547.549194 863.103882,552.657288 
z"/>
<path fill="#C7B4E1" opacity="1.000000" stroke="none" 
	d="
M762.012817,630.358154 
	C764.608032,632.453186 767.306641,634.918152 769.998108,637.729736 
	C765.926086,637.170105 763.635620,634.362305 762.012817,630.358154 
z"/>
<path fill="#D4EBF1" opacity="1.000000" stroke="none" 
	d="
M467.020142,529.387085 
	C469.542450,531.190613 472.225555,533.312683 474.923340,535.788696 
	C472.352356,533.997009 469.766632,531.851318 467.020142,529.387085 
z"/>
<path fill="#C7B4E1" opacity="1.000000" stroke="none" 
	d="
M753.035889,507.594360 
	C751.349365,505.469055 749.625732,502.939453 747.922363,500.007874 
	C749.627991,502.133972 751.313477,504.662048 753.035889,507.594360 
z"/>
<path fill="#D4EBF1" opacity="1.000000" stroke="none" 
	d="
M619.377197,545.080383 
	C620.485474,542.827087 621.964172,540.502380 623.780884,538.107056 
	C622.661804,540.360657 621.204712,542.684814 619.377197,545.080383 
z"/>
<path fill="#D4EBF1" opacity="1.000000" stroke="none" 
	d="
M502.055359,517.581299 
	C500.084625,516.162292 498.057251,514.378967 496.052612,512.224365 
	C498.049774,513.641052 500.024231,515.429016 502.055359,517.581299 
z"/>
<path fill="#D4EBF1" opacity="1.000000" stroke="none" 
	d="
M494.086548,509.572815 
	C492.456543,508.168121 490.758972,506.406982 489.057678,504.279480 
	C490.708954,505.680817 492.363953,507.448608 494.086548,509.572815 
z"/>
<path fill="#C7B4E1" opacity="1.000000" stroke="none" 
	d="
M868.607910,562.490112 
	C867.235596,560.407593 865.697815,558.039429 864.101929,555.320679 
	C865.510071,557.381531 866.976257,559.792969 868.607910,562.490112 
z"/>
<path fill="#C7B4E1" opacity="1.000000" stroke="none" 
	d="
M764.095886,518.762939 
	C762.559631,517.908447 760.820801,516.764282 759.038147,515.273254 
	C760.627319,516.108704 762.260315,517.291016 764.095886,518.762939 
z"/>
<path fill="#D4EBF1" opacity="1.000000" stroke="none" 
	d="
M744.941589,486.567322 
	C744.245789,484.552734 743.620728,482.126434 743.016479,479.293945 
	C743.695618,481.310364 744.354004,483.732971 744.941589,486.567322 
z"/>
<path fill="#C7B4E1" opacity="1.000000" stroke="none" 
	d="
M727.054077,529.325684 
	C728.616028,530.127258 730.303284,531.249084 731.992920,532.722595 
	C730.390015,531.931519 728.784729,530.788696 727.054077,529.325684 
z"/>
<path fill="#C7B4E1" opacity="1.000000" stroke="none" 
	d="
M871.597900,569.446899 
	C870.925659,568.069458 870.076050,566.407104 869.157410,564.395630 
	C869.865723,565.751587 870.643127,567.456787 871.597900,569.446899 
z"/>
<path fill="#C7B4E1" opacity="1.000000" stroke="none" 
	d="
M756.026001,511.630676 
	C755.030273,510.881866 753.986511,509.758148 752.977051,508.281555 
	C754.000305,509.037689 754.989075,510.146698 756.026001,511.630676 
z"/>
<path fill="#D4EBF1" opacity="1.000000" stroke="none" 
	d="
M506.992737,520.640869 
	C505.492676,520.165894 503.837524,519.375244 502.117126,518.235291 
	C503.647095,518.699097 505.242371,519.512146 506.992737,520.640869 
z"/>
<path fill="#C7B4E1" opacity="1.000000" stroke="none" 
	d="
M736.974670,538.338440 
	C737.982422,539.121704 739.038635,540.245361 740.038696,541.720825 
	C738.996155,540.941406 738.009644,539.810120 736.974670,538.338440 
z"/>
<path fill="#D4EBF1" opacity="1.000000" stroke="none" 
	d="
M626.396851,536.076538 
	C626.838196,535.127258 627.635498,534.117432 628.782349,533.074097 
	C628.338928,534.032410 627.545837,535.024170 626.396851,536.076538 
z"/>
<path fill="#D4EBF1" opacity="1.000000" stroke="none" 
	d="
M482.442871,473.923523 
	C482.164673,471.970367 482.262329,469.836334 482.590454,467.398315 
	C482.820221,469.310455 482.819458,471.526550 482.442871,473.923523 
z"/>
<path fill="#C7B4E1" opacity="1.000000" stroke="none" 
	d="
M759.041138,514.634033 
	C758.066895,514.203064 757.059753,513.402832 756.025513,512.263977 
	C757.001648,512.705139 758.004883,513.484924 759.041138,514.634033 
z"/>
<path fill="#C7B4E1" opacity="1.000000" stroke="none" 
	d="
M747.946350,498.842651 
	C747.291321,498.381165 746.669617,497.502777 746.043640,496.282074 
	C746.686157,496.768433 747.332886,497.597107 747.946350,498.842651 
z"/>
<path fill="#C7B4E1" opacity="1.000000" stroke="none" 
	d="
M724.024292,527.326660 
	C724.884644,527.478394 725.873108,527.938171 726.936768,528.733154 
	C726.058777,528.590576 725.105530,528.112732 724.024292,527.326660 
z"/>
<path fill="#C7B4E1" opacity="1.000000" stroke="none" 
	d="
M760.184692,627.536011 
	C760.739990,627.986328 761.319885,628.728577 761.946716,629.779297 
	C761.398804,629.334473 760.804016,628.581238 760.184692,627.536011 
z"/>
<path fill="#C7B4E1" opacity="1.000000" stroke="none" 
	d="
M739.976257,542.329346 
	C740.614868,542.796692 741.307312,543.592651 741.997009,544.739624 
	C741.339539,544.279663 740.684814,543.468811 739.976257,542.329346 
z"/>
<path fill="#D4EBF1" opacity="1.000000" stroke="none" 
	d="
M489.014404,503.637848 
	C488.435272,503.183197 487.771057,502.415436 487.075897,501.303558 
	C487.673096,501.747864 488.301239,502.536285 489.014404,503.637848 
z"/>
<path fill="#C7B4E1" opacity="1.000000" stroke="none" 
	d="
M769.122681,521.769531 
	C768.266174,521.581726 767.207947,521.103638 766.069031,520.278076 
	C766.965881,520.446777 767.943420,520.963013 769.122681,521.769531 
z"/>
<path fill="#D4EBF1" opacity="1.000000" stroke="none" 
	d="
M624.389038,538.052368 
	C624.518372,537.448120 624.997009,536.782898 625.807617,536.077637 
	C625.672485,536.688843 625.205383,537.340149 624.389038,538.052368 
z"/>
<path fill="#C7B4E1" opacity="1.000000" stroke="none" 
	d="
M734.946289,536.390869 
	C735.611328,536.474731 736.300964,536.932312 736.992798,537.730835 
	C736.320312,537.636108 735.645691,537.200256 734.946289,536.390869 
z"/>
<path fill="#D4EBF1" opacity="1.000000" stroke="none" 
	d="
M496.088928,511.574707 
	C495.471680,511.461426 494.787537,510.995758 494.085449,510.187103 
	C494.719025,510.303528 495.370544,510.762939 496.088928,511.574707 
z"/>
<path fill="#C7B4E1" opacity="1.000000" stroke="none" 
	d="
M733.992004,535.271545 
	C734.293213,535.147583 734.653503,535.297485 735.001099,535.762817 
	C734.675903,535.900696 734.363525,535.723083 733.992004,535.271545 
z"/>
<path fill="#D4EBF1" opacity="1.000000" stroke="none" 
	d="
M737.779968,430.675049 
	C737.578064,430.698822 737.440857,430.451416 737.184448,430.052338 
	C737.316956,430.016632 737.576843,430.184387 737.779968,430.675049 
z"/>
<path fill="#C7B4E1" opacity="1.000000" stroke="none" 
	d="
M733.027649,534.245117 
	C733.265015,534.156799 733.600586,534.318420 733.970947,534.775574 
	C733.712463,534.879089 733.419128,534.687073 733.027649,534.245117 
z"/>
<path fill="#C7B4E1" opacity="1.000000" stroke="none" 
	d="
M731.994934,533.273804 
	C732.281311,533.151062 732.635864,533.299194 732.996582,533.757263 
	C732.689575,533.893066 732.376343,533.718933 731.994934,533.273804 
z"/>
<path fill="#D4EBF1" opacity="1.000000" stroke="none" 
	d="
M643.247986,523.889648 
	C643.114319,523.536133 643.355774,523.324463 643.919250,523.121826 
	C643.938843,523.320984 643.732727,523.621216 643.247986,523.889648 
z"/>
<path fill="#D4EBF1" opacity="1.000000" stroke="none" 
	d="
M509.035400,521.736572 
	C508.856659,521.828796 508.584534,521.680481 508.187805,521.338135 
	C508.356812,521.260193 508.649750,521.377441 509.035400,521.736572 
z"/>
<path fill="#C7B4E1" opacity="1.000000" stroke="none" 
	d="
M765.967163,519.707275 
	C765.707275,519.882568 765.343689,519.766785 764.847412,519.380249 
	C765.097656,519.211670 765.480530,519.313965 765.967163,519.707275 
z"/>
<path fill="#7BC5AB" opacity="1.000000" stroke="none" 
	d="
M532.958862,528.480103 
	C533.495972,528.097534 533.920959,528.049622 534.666931,527.995728 
	C537.991394,527.820862 540.995361,527.503357 543.998169,527.514526 
	C550.078491,527.537109 556.158264,527.737854 562.661987,527.888550 
	C567.107483,528.790405 571.129333,529.668884 575.500854,530.530945 
	C581.735535,534.677368 588.488464,538.033875 593.290283,543.202820 
	C599.599060,549.993896 604.371460,558.212280 610.149170,565.996582 
	C611.047974,570.095459 611.502319,574.031738 612.172791,577.930847 
	C616.055908,600.510315 609.218079,619.549805 593.271179,635.626038 
	C592.461609,636.442139 591.809265,637.414185 591.034790,638.649170 
	C585.431885,641.872620 580.092102,645.317322 574.286255,647.550171 
	C551.474670,656.323853 530.160034,653.232605 511.131958,637.809326 
	C493.189667,623.266113 486.232239,604.054260 488.706787,581.252441 
	C489.154266,577.128967 489.536469,572.998352 489.975769,568.450195 
	C491.408020,565.760437 492.938843,563.558960 494.198303,561.211914 
	C502.612701,545.531006 514.445984,533.992432 532.207092,529.534729 
	C532.464355,529.470215 532.635437,529.062378 532.958862,528.480103 
z"/>
<path fill="#C4F25D" opacity="1.000000" stroke="none" 
	d="
M480.205933,475.751831 
	C480.387238,477.023285 480.265839,478.066345 480.183777,479.500671 
	C479.006927,481.319733 477.439270,482.573090 476.630188,484.203033 
	C470.140656,497.276917 460.393921,506.982208 446.693512,513.371094 
	C446.004242,513.886658 445.817352,514.250305 445.630493,514.613892 
	C443.818634,515.594971 442.006805,516.575989 440.024109,517.919556 
	C439.491699,518.264160 439.130157,518.246277 438.135803,518.153992 
	C437.257721,518.088318 437.012360,518.096985 436.767029,518.105713 
	C433.402252,518.489014 429.986420,518.623474 426.682190,519.301697 
	C416.178619,521.457642 406.082367,518.543091 395.253601,516.827637 
	C385.632874,512.108276 377.276123,506.733490 371.176910,498.591614 
	C367.439606,493.602600 364.242920,488.208618 360.803436,482.996521 
	C359.791779,475.444244 357.967987,467.898682 357.905487,460.338562 
	C357.592896,422.505341 388.713776,393.023834 426.250275,397.145294 
	C453.582397,400.146332 475.736206,418.926086 480.143829,447.962067 
	C481.338531,455.832306 479.919006,464.097534 479.727814,472.182098 
	C479.701538,473.293915 479.840698,474.409576 480.205933,475.751831 
z"/>
<path fill="#F9F6C9" opacity="1.000000" stroke="none" 
	d="
M445.784058,514.597778 
	C445.817352,514.250305 446.004242,513.886658 446.361694,513.592407 
	C446.334045,513.968323 446.135864,514.275024 445.784058,514.597778 
z"/>
<path fill="#FCF28A" opacity="1.000000" stroke="none" 
	d="
M360.544617,483.242310 
	C364.242920,488.208618 367.439606,493.602600 371.176910,498.591614 
	C377.276123,506.733490 385.632874,512.108276 394.832458,516.837280 
	C393.770996,517.811279 392.596283,518.748169 391.264008,519.119019 
	C371.885040,524.513245 358.305664,535.976807 351.961670,555.556091 
	C349.391235,563.489136 348.785583,571.226013 349.766785,579.549377 
	C351.854126,597.256042 349.260040,614.515503 337.490601,628.446228 
	C326.166443,641.849854 311.768982,650.390930 293.230377,651.235168 
	C274.060699,652.108154 257.604462,646.445374 244.492264,632.827332 
	C227.859650,615.553162 222.913300,594.950989 229.871399,571.719666 
	C236.105194,550.906616 249.749603,537.180237 270.002777,530.037720 
	C278.518463,527.034546 287.487885,526.108032 296.521820,527.335266 
	C310.039215,529.171448 323.260132,528.517822 334.985870,520.864807 
	C347.243561,512.864563 355.187866,501.433350 358.968781,487.204681 
	C359.305176,485.938568 359.842041,484.725708 360.544617,483.242310 
z"/>
<path fill="#A5D3B0" opacity="1.000000" stroke="none" 
	d="
M436.751831,518.344238 
	C437.012360,518.096985 437.257721,518.088318 437.862549,518.167969 
	C437.896362,518.485535 437.570709,518.714722 436.940430,518.997192 
	C436.635834,519.050415 436.736603,518.582886 436.751831,518.344238 
z"/>
</svg>